<svg version="1.1" xmlns="http://www.w3.org/2000/svg" xmlns:xlink="http://www.w3.org/1999/xlink" x="0px" y="0px" viewBox="0 329.9 612 132.1"
    enable-background="new 0 329.9 612 132.1" xml:space="preserve">
    <g class="logo__body">
        <path fill="#FFFFFF" d="M54.1,461.9c-4.7-1.7-9-4.2-12.8-7.3c-17.9-12.2-26.5-30.2-30.9-50.6c-1.7-4.7,0.8-9.8,5.4-11.5
                    c0.1,0,0.2-0.1,0.3-0.1c3.9-1.5,7.8-3.2,12.8-5.2c-0.7,28.8,7.5,53.3,26.5,73.7c32-22.4,50.1-53.1,57.7-90.3
                    c2.9-14.2,1.7-15.4-13.1-15.6c-31.9-0.5-63.4,8.1-90.7,24.7c-0.8,0.5-1.6,0.9-2.5,1.3c-1.7-3.1-3.2-6.3-4.5-9.6
                    c0,0-10.7-21.1,14.3-31.5c42.8-17.8,83.7-11.8,120.6,17c5.1,3.7,7.8,10,7,16.2c-1.6,21.9-14.2,38.4-27.6,53.8
                    c-15.3,17.4-34.3,30.8-58.2,34.9C56.9,462.1,55.5,462.1,54.1,461.9z"></path>
    </g>
</svg>